<?xml version="1.0" encoding="utf-8"?>
<!-- Generator: Adobe Illustrator 16.0.4, SVG Export Plug-In . SVG Version: 6.00 Build 0)  -->
<!DOCTYPE svg PUBLIC "-//W3C//DTD SVG 1.1//EN" "http://www.w3.org/Graphics/SVG/1.1/DTD/svg11.dtd">
<svg version="1.1" id="Layer_1" xmlns="http://www.w3.org/2000/svg" xmlns:xlink="http://www.w3.org/1999/xlink" x="0px" y="0px"
	 width="485.246px" height="118.871px" viewBox="0 0 485.246 118.871" enable-background="new 0 0 485.246 118.871"
	 xml:space="preserve">
<g>
	<path fill="#FFFFFF" d="M127.192,36.833c3.929,9.543,9.032,18.102,16.435,24.961c-4.083,2.105-8.217,4.238-12.479,6.437
		c-0.462-2.372-0.771-4.991-1.498-7.491c-2.066-7.1-4.278-14.157-6.52-21.204c-0.168-0.528-1.089-1.243-1.565-1.179
		c-2.807,0.385-5.585,0.975-8.591,1.536c0,3.907,0.283,7.821-0.077,11.674c-0.389,4.163,0.648,7.317,4.432,9.356
		c0.366,0.197,0.639,0.568,1.189,1.072c-6.441,0-12.546,0-19.099,0c1.721-1.44,3.189-2.612,4.578-3.87
		c0.445-0.402,0.959-1.032,0.967-1.565c0.072-5.089,0.043-10.18,0.043-15.664c-2.157,0.309-4.13,0.591-6.268,0.897
		c0.529-1.452,1.051-2.885,1.633-4.484c1.462,0,2.901,0,4.639,0c0-1.211,0-2.241,0-3.27c0-4.306-0.063-8.612,0.036-12.914
		c0.032-1.4-0.424-2.169-1.671-2.731c-1.318-0.593-2.547-1.385-3.972-2.178c4.218-2.865,8.713-4.608,13.541-5.568
		c5.445-1.083,10.892-1.444,16.293,0.174c3.537,1.061,6.753,2.687,9.036,5.761c3.356,4.52,3.032,11.093-1.221,14.783
		c-2.287,1.983-5.234,3.209-7.906,4.736C128.593,36.42,127.938,36.561,127.192,36.833z M112.975,36.537
		c4.662-0.151,10.53-2.02,13.914-4.336c5.339-3.654,6.565-10.255,2.633-15.002c-2.635-3.18-6.202-4.298-10.286-3.991
		c-4.563,0.343-6.261,2.087-6.261,6.575C112.975,25.326,112.975,30.87,112.975,36.537z"/>
	<path fill="#FFFFFF" d="M256.369,61.721c0.494-0.433,0.934-0.966,1.494-1.281c3.191-1.789,3.923-4.455,3.848-8.037
		c-0.243-11.514-0.121-23.035-0.055-34.554c0.009-1.544-0.395-2.608-1.66-3.49c-1.23-0.855-2.336-1.889-3.732-3.039
		c0.495-0.113,0.717-0.208,0.938-0.208c6.223-0.001,12.444-0.02,18.667,0.018c15.426,0.094,21.693,9.807,22.344,21.987
		c0.318,5.996-0.021,11.919-2.6,17.48c-3.039,6.562-8.332,10.383-15.389,10.966c-7.88,0.651-15.822,0.524-23.74,0.735
		C256.445,62.107,256.407,61.914,256.369,61.721z M269.698,58.367c1.206,0.071,2.313,0.132,3.421,0.204
		c6.77,0.441,11.281-2.26,13.994-8.457c2.195-5.016,2.677-10.334,2.521-15.724c-0.134-4.59-0.78-9.089-3.106-13.179
		c-3.245-5.701-9.57-8.078-16.828-6.195C269.698,29.41,269.698,43.807,269.698,58.367z"/>
	<path fill="#FFFFFF" d="M78.432,42.934c-2.757,3.227-5.225,6.115-7.684,8.992c-2.782-3.766-5.617-7.603-8.453-11.439
		c-0.279,0.037-0.558,0.073-0.837,0.109c-1.112,4.089-2.389,8.141-3.278,12.276c-0.586,2.726,0.833,4.999,2.681,6.954
		c0.583,0.617,1.157,1.241,1.973,2.115c-6.688,0-13.042,0-19.133,0c1.885-1.639,4.158-3.229,5.95-5.246
		c4.449-5.011,6.632-11.223,8.583-17.497c0.125-0.403-0.32-1.304-0.727-1.497c-1.517-0.722-3.128-1.245-4.808-1.883
		c1.014-1.863,2.079-3.821,3.186-5.854c1.368,1.263,2.75,2.537,4.382,4.042c1.209-3.245,2.326-6.234,3.441-9.225
		c0.923-2.479,1.779-4.983,2.797-7.422c0.508-1.216,0.395-2.062-0.593-2.961c-0.959-0.874-1.752-1.931-2.826-3.143
		c6.115,0,11.936,0,17.98,0c-0.221,0.316-0.314,0.563-0.492,0.688c-3.295,2.322-3.517,5.05-1.754,8.598
		c1.727,3.475,2.823,7.263,4.204,10.91c0.226,0.597,0.495,1.179,0.881,2.092c1.947-1.624,3.701-3.087,5.525-4.608
		c0.984,2.325,1.999,4.72,2.991,7.063c-2.298,0.336-4.583,0.67-7.192,1.051c1.722,4.688,3.416,8.836,4.763,13.093
		c1.531,4.835,3.493,9.245,8.681,11.424c-0.119,0.133-0.238,0.264-0.357,0.396c-6.432,0-12.863,0-19.736,0
		c1.533-1.32,2.793-2.503,4.159-3.549c0.914-0.701,1.202-1.31,0.727-2.476C81.781,51.801,80.229,47.613,78.432,42.934z
		 M70.863,45.692c1.72-1.953,3.319-3.896,5.066-5.693c0.822-0.846,0.957-1.522,0.531-2.611c-2.115-5.417-4.14-10.869-6.211-16.304
		c-0.144-0.376-0.401-0.71-0.749-1.311c-2.048,5.42-3.995,10.536-5.891,15.669c-0.152,0.411-0.137,1.095,0.11,1.408
		C66.041,39.801,68.43,42.699,70.863,45.692z"/>
	<path fill="#FFFFFF" d="M232.146,11.255c-2.246,3.835-4.498,7.68-6.735,11.499c-0.302-0.594-0.778-1.47-1.198-2.373
		c-1.576-3.388-4.1-5.564-7.919-5.71c-3.878-0.148-7.768-0.032-11.773-0.032c0,6.137,0,12.119,0,18.344
		c3.366,0,6.657,0.04,9.945-0.045c0.47-0.013,1.004-0.558,1.373-0.977c1.351-1.539,2.644-3.127,4.219-5.008
		c0,5.243,0,10.111,0,15.317c-1.459-1.724-2.679-3.336-4.093-4.754c-0.612-0.614-1.612-1.126-2.46-1.167
		c-2.953-0.141-5.917-0.054-8.99-0.054c0,7.475,0,14.719,0,22.09c4.51,0.352,8.896,0.417,13.264-0.579
		c4.762-1.087,7.094-4.759,9.478-9.019c1.17,5.36,3.656,9.563,7.817,13.188c-14.919,0-29.355,0-44.217,0
		c1.715-1.435,3.179-2.614,4.586-3.86c0.412-0.364,0.938-0.912,0.942-1.379c0.061-6.74,0.042-13.479,0.042-20.344
		c-3.025-0.319-5.43,0.795-7.738,2.339c-0.167-3.207,2.229-5.063,7.746-5.928c0-1.31,0-2.673,0-4.037
		c0-3.841,0.069-7.684-0.054-11.521c-0.027-0.842-0.562-1.835-1.171-2.456c-1.183-1.207-2.586-2.198-4.209-3.536
		C205.042,11.255,218.691,11.255,232.146,11.255z"/>
	<path fill="#FFFFFF" d="M455.332,62.069c-5.093,0-10.185,0-15.285,0c0.027-0.144,0.02-0.327,0.072-0.347
		c4.289-1.619,5.696-5.109,5.823-9.274c0.143-4.696,0.097-9.4,0.105-14.101c0.013-6.821-0.051-13.642,0.042-20.461
		c0.022-1.635-0.45-2.726-1.79-3.63c-1.191-0.804-2.243-1.815-3.651-2.98c6.862,0,13.38,0,20.28,0
		c-1.912,1.603-3.556,2.98-5.308,4.448c6.118,11.844,12.198,23.613,18.39,35.598c0.199-0.408,0.338-0.558,0.337-0.709
		c-0.016-9.798,0.003-19.596-0.09-29.394c-0.039-4.223-1.09-8.009-5.486-9.998c4.787,0,9.574,0,14.363-0.001
		c-0.002,0.115,0.028,0.315-0.018,0.335c-3.982,1.702-5.247,5.093-5.279,9.007c-0.105,12.977-0.084,25.955-0.111,38.932
		c-0.002,0.781,0,1.562,0,2.602c-2.103,0-4.008,0.12-5.881-0.075c-0.55-0.059-1.153-0.934-1.481-1.564
		c-6.578-12.679-13.119-25.375-19.671-38.067c-0.3-0.577-0.625-1.14-1.144-2.08c-0.105,0.8-0.208,1.203-0.208,1.605
		c-0.01,9.403-0.021,18.806,0.008,28.208c0.005,1.45,0.151,2.909,0.349,4.348C450.184,58.013,452.025,60.556,455.332,62.069z"/>
	<path fill="#FFFFFF" d="M366.746,11.177c6.541,0,12.547,0,19.022,0c-1.688,1.418-3.131,2.511-4.404,3.773
		c-0.425,0.421-0.742,1.393-0.561,1.923c4.135,12.002,8.345,23.979,12.545,35.958c0.041,0.113,0.169,0.195,0.455,0.513
		c0.906-2.343,1.79-4.553,2.617-6.783c3.424-9.236,6.908-18.451,10.21-27.73c1.621-4.561,2.336-9.188-1.38-12.955
		c5.534-1.937,10.964-3.838,16.313-5.711c0.019-0.313,0.071-0.101-0.009-0.017c-6.279,6.577-9.718,14.739-12.87,23.058
		c-4.031,10.635-8.005,21.292-12.12,31.894c-0.66,1.699-0.66,2.743,0.971,3.767c1.258,0.79,2.317,1.895,3.761,3.105
		c-6.745,0-13.093,0-19.851,0c1.745-1.43,3.269-2.559,4.627-3.858c0.431-0.412,0.757-1.398,0.571-1.925
		c-4.654-13.223-9.379-26.422-14.127-39.612c-0.207-0.577-0.688-1.108-1.158-1.526C369.988,13.834,368.554,12.685,366.746,11.177z"
		/>
	<path fill="#FFFFFF" d="M331.269,11.245c0.383-0.065,0.611-0.138,0.841-0.138c5.488-0.007,10.978-0.005,16.515-0.005
		c-0.079,0.254-0.086,0.442-0.152,0.466c-6.453,2.352-6.713,7.925-6.82,13.429c-0.156,7.876-0.082,15.758-0.136,23.637
		c-0.008,1.254-0.094,2.517-0.271,3.757c-0.901,6.303-3.295,8.991-9.449,10.349c-4.521,0.998-9.059,0.867-13.541-0.389
		c-5.499-1.542-8.652-5.177-9.372-10.802c-0.378-2.944-0.587-5.928-0.617-8.896c-0.081-8.21-0.072-16.424,0.012-24.635
		c0.016-1.614-0.376-2.754-1.713-3.683c-1.222-0.849-2.312-1.883-3.781-3.102c6.446,0,12.461,0,18.912,0
		c-1.675,1.38-3.104,2.42-4.349,3.65c-0.577,0.571-1.111,1.508-1.117,2.284c-0.071,10.728-0.114,21.458-0.011,32.186
		c0.034,3.381,0.374,6.782,3.721,8.91c3.758,2.391,10.767,2.283,14.37-0.312c2.271-1.636,3.178-4.021,3.525-6.639
		c0.279-2.094,0.461-4.215,0.479-6.325c0.058-6.82,0.026-13.643,0.016-20.464c-0.002-1.125-0.021-2.255-0.133-3.372
		C337.689,16.123,336.634,14.613,331.269,11.245z"/>
	<path fill="#FFFFFF" d="M43.87,11.454c-2.637,5.295-5.12,10.282-7.544,15.151c-0.699-2.093-1.265-4.416-2.235-6.554
		c-1.832-4.033-5.052-6.446-9.505-6.81c-4.98-0.407-9.335,2.71-11.406,7.88c-2.188,5.465-2.538,11.186-2.299,16.975
		c0.201,4.855,0.9,9.62,3.119,14.027c3.181,6.317,9.509,9.167,15.872,7.174c4.354-1.363,6.612-4.642,7.836-8.771
		c0.448-1.511,0.49-3.143,0.943-4.652c0.199-0.662,0.966-1.153,1.476-1.722c0.46,0.605,1.316,1.21,1.32,1.819
		c0.065,9.467-4.442,17.048-15.582,17.306C13.458,63.563,5.647,57.276,3.027,45.11c-1.567-7.276-1.218-14.463,1.63-21.43
		C9.39,12.101,20.639,7.034,32.417,11.172c0.685,0.241,1.358,0.513,2.04,0.762C38.703,13.479,39.581,13.447,43.87,11.454z"/>
	<path fill="#FFFFFF" d="M147.698,22.945c-1.854-3.833-3.712-7.678-5.642-11.669c15.813,0,31.629,0,47.552,0
		c-1.863,3.827-3.717,7.638-5.703,11.718c-1.054-3.006-1.932-6.016-5.012-7.5c-2.891-1.394-5.867-1.185-9.079-0.809
		c0,0.851,0,1.562,0,2.275c0,12.708,0.031,25.417-0.04,38.125c-0.009,1.617,0.384,2.741,1.722,3.665
		c1.284,0.888,2.437,1.964,3.962,3.216c-6.523,0-12.628,0-19.146,0c1.636-1.381,3.105-2.527,4.45-3.804
		c0.51-0.484,1.04-1.27,1.042-1.918c0.053-13.635,0.032-27.271,0.022-40.905c0-0.128-0.057-0.255-0.088-0.382
		C156.431,13.604,149.801,14.123,147.698,22.945z"/>
	<path fill="#FFFFFF" d="M436.429,11.253c-1.722,1.411-3.149,2.453-4.407,3.671c-0.537,0.521-1.013,1.409-1.017,2.132
		c-0.061,12.973-0.06,25.945-0.001,38.918c0.003,0.726,0.467,1.621,1.003,2.14c1.324,1.281,2.816,2.391,4.527,3.805
		c-6.445,0-12.565,0-19.042,0c1.535-1.287,2.966-2.318,4.17-3.567c0.646-0.671,1.272-1.714,1.28-2.594
		c0.08-12.84,0.076-25.68,0.004-38.52c-0.005-0.832-0.568-1.83-1.179-2.451c-1.184-1.205-2.585-2.196-4.208-3.534
		C423.923,11.253,429.89,11.253,436.429,11.253z"/>
</g>
<line fill="none" stroke="#FFFFFF" stroke-width="5" stroke-miterlimit="10" x1="2.103" y1="79.341" x2="483.144" y2="79.341"/>
<g>
	<path fill="#FFFFFF" d="M3.121,94.708h2.388l5.554,16.191l5.333-16.247h1.805l5.333,16.247l5.554-16.191h2.305l-6.943,19.58h-1.861
		l-5.332-15.774l-5.36,15.774h-1.833L3.121,94.708z"/>
	<path fill="#FFFFFF" d="M38.28,94.708h2.194v19.44H38.28V94.708z"/>
	<path fill="#FFFFFF" d="M48.888,94.708h2.055l12.247,15.58v-15.58h2.138v19.44H63.58l-12.553-15.94v15.94h-2.139V94.708z"/>
	<path fill="#FFFFFF" d="M73.549,94.708h14.052v1.973H75.743v6.693h10.609v1.972H75.743v6.831h11.998v1.973H73.549V94.708z"/>
	<path fill="#FFFFFF" d="M114.818,114.483c-1.408,0-2.704-0.259-3.889-0.776c-1.185-0.519-2.212-1.228-3.082-2.125
		c-0.871-0.897-1.551-1.959-2.041-3.18c-0.491-1.223-0.736-2.527-0.736-3.917v-0.056c0-1.369,0.245-2.666,0.736-3.889
		c0.49-1.223,1.17-2.291,2.041-3.207c0.87-0.916,1.907-1.64,3.11-2.166c1.204-0.527,2.518-0.791,3.944-0.791
		c0.888,0,1.689,0.074,2.402,0.222c0.712,0.147,1.375,0.356,1.986,0.625c0.611,0.271,1.175,0.593,1.694,0.972
		c0.518,0.381,1.018,0.803,1.5,1.264l-1.5,1.611c-0.833-0.777-1.727-1.416-2.68-1.916c-0.954-0.501-2.097-0.75-3.43-0.75
		c-1.074,0-2.069,0.204-2.986,0.611c-0.917,0.406-1.713,0.972-2.388,1.693c-0.676,0.722-1.204,1.568-1.583,2.541
		c-0.38,0.972-0.569,2.014-0.569,3.123v0.057c0,1.13,0.189,2.181,0.569,3.152c0.379,0.971,0.907,1.818,1.583,2.541
		c0.675,0.723,1.472,1.291,2.388,1.707s1.912,0.625,2.986,0.625c1.333,0,2.481-0.244,3.443-0.736
		c0.962-0.489,1.907-1.18,2.833-2.067l1.444,1.417c-0.5,0.52-1.023,0.984-1.569,1.4c-0.546,0.418-1.134,0.775-1.764,1.07
		c-0.629,0.295-1.306,0.527-2.027,0.693C116.512,114.398,115.707,114.483,114.818,114.483z"/>
	<path fill="#FFFFFF" d="M129.148,94.708H143.2v1.973h-11.859v6.693h10.609v1.972h-10.609v6.831h11.998v1.973h-14.191V94.708
		L129.148,94.708z"/>
	<path fill="#FFFFFF" d="M150.477,94.708h2.194v17.414h10.942v2.026h-13.136V94.708z"/>
	<path fill="#FFFFFF" d="M170.389,94.708h2.194v17.414h10.942v2.026h-13.136V94.708z"/>
	<path fill="#FFFFFF" d="M197.494,94.57h2.055l8.859,19.58h-2.36l-2.277-5.139H193.19l-2.305,5.139h-2.25L197.494,94.57z
		 M202.91,107.041l-4.416-9.914l-4.443,9.914H202.91z"/>
	<path fill="#FFFFFF" d="M214.962,94.708h8.359c1.203,0,2.272,0.172,3.208,0.515c0.935,0.344,1.708,0.819,2.319,1.43
		c0.482,0.481,0.852,1.048,1.111,1.694c0.259,0.648,0.389,1.361,0.389,2.139v0.057c0,0.814-0.13,1.541-0.389,2.18
		c-0.259,0.64-0.625,1.193-1.097,1.667c-0.472,0.472-1.032,0.86-1.681,1.166c-0.648,0.306-1.352,0.522-2.11,0.653l5.971,7.941
		h-2.694l-5.638-7.554h-0.056h-5.499v7.554h-2.194L214.962,94.708L214.962,94.708z M223.143,104.625
		c0.724,0,1.392-0.092,2.004-0.277s1.142-0.448,1.587-0.791c0.445-0.344,0.793-0.76,1.044-1.25c0.25-0.49,0.376-1.051,0.376-1.682
		v-0.056c0-1.202-0.437-2.144-1.309-2.817c-0.872-0.676-2.097-1.015-3.675-1.015h-6.014v7.888H223.143z"/>
	<path fill="#FFFFFF" d="M248.814,94.708h2.222l7.083,10.608l7.083-10.608h2.221v19.44h-2.192V98.403l-7.084,10.415h-0.11
		l-7.081-10.387v15.719h-2.139V94.708H248.814z"/>
	<path fill="#FFFFFF" d="M282.836,94.57h2.055l8.859,19.58h-2.361l-2.277-5.139h-10.579l-2.306,5.139h-2.248L282.836,94.57z
		 M288.252,107.041l-4.416-9.914l-4.441,9.914H288.252z"/>
	<path fill="#FFFFFF" d="M300.305,94.708h2.055l12.248,15.58v-15.58h2.139v19.44h-1.749l-12.554-15.94v15.94h-2.139V94.708z"/>
	<path fill="#FFFFFF" d="M332.158,94.57h2.055l8.859,19.58h-2.361l-2.276-5.139h-10.581l-2.304,5.139h-2.25L332.158,94.57z
		 M337.574,107.041l-4.416-9.914l-4.442,9.914H337.574z"/>
	<path fill="#FFFFFF" d="M358.653,114.483c-1.538,0-2.913-0.259-4.125-0.776c-1.213-0.519-2.25-1.231-3.11-2.14
		c-0.861-0.907-1.519-1.967-1.973-3.18c-0.452-1.212-0.682-2.515-0.682-3.902v-0.056c0-1.333,0.236-2.605,0.71-3.818
		c0.473-1.213,1.134-2.281,1.984-3.208c0.853-0.925,1.876-1.661,3.069-2.208c1.193-0.546,2.521-0.818,3.983-0.818
		c0.815,0,1.561,0.057,2.236,0.166c0.677,0.111,1.307,0.278,1.889,0.5c0.583,0.224,1.129,0.496,1.639,0.819
		c0.509,0.324,1.005,0.69,1.485,1.099l-1.416,1.666c-0.37-0.334-0.76-0.635-1.165-0.902c-0.407-0.27-0.849-0.501-1.319-0.693
		c-0.473-0.195-0.99-0.349-1.557-0.459c-0.564-0.111-1.188-0.166-1.874-0.166c-1.073,0-2.063,0.213-2.973,0.639
		c-0.906,0.426-1.685,1-2.332,1.722c-0.649,0.722-1.158,1.569-1.528,2.541s-0.554,1.995-0.554,3.067v0.057
		c0,1.167,0.18,2.24,0.54,3.222s0.875,1.834,1.542,2.556c0.667,0.723,1.472,1.287,2.416,1.693c0.945,0.407,2.01,0.611,3.193,0.611
		c1.11,0,2.157-0.189,3.139-0.569c0.979-0.379,1.806-0.837,2.472-1.374v-4.833h-5.915v-1.972h8.026v7.748
		c-0.908,0.814-2.023,1.514-3.347,2.097C361.786,114.192,360.301,114.483,358.653,114.483z"/>
	<path fill="#FFFFFF" d="M374.121,94.708h14.053v1.973h-11.858v6.693h10.608v1.972h-10.608v6.831h11.997v1.973h-14.19
		L374.121,94.708L374.121,94.708z"/>
	<path fill="#FFFFFF" d="M395.451,94.708h2.221l7.083,10.608l7.081-10.608h2.223v19.44h-2.194V98.403l-7.081,10.415h-0.111
		l-7.083-10.387v15.719h-2.137L395.451,94.708L395.451,94.708z"/>
	<path fill="#FFFFFF" d="M422.277,94.708h14.053v1.973h-11.859v6.693h10.61v1.972h-10.61v6.831h11.998v1.973h-14.19L422.277,94.708
		L422.277,94.708z"/>
	<path fill="#FFFFFF" d="M443.606,94.708h2.055l12.247,15.58v-15.58h2.139v19.44h-1.749l-12.553-15.94v15.94h-2.139V94.708z"/>
	<path fill="#FFFFFF" d="M473.405,96.737h-6.527V94.71h15.248v2.026h-6.527v17.413h-2.192L473.405,96.737L473.405,96.737z"/>
</g>
</svg>
